<?xml version="1.0" encoding="UTF-8" standalone="no"?>
<!-- Created with Inkscape (http://www.inkscape.org/) -->

<svg
   version="1.1"
   id="svg9"
   xml:space="preserve"
   width="275.89072"
   height="285.79065"
   viewBox="0 0 275.89072 285.79065"
   sodipodi:docname="dexfig.svg"
   inkscape:version="1.1.2 (b8e25be833, 2022-02-05)"
   xmlns:inkscape="http://www.inkscape.org/namespaces/inkscape"
   xmlns:sodipodi="http://sodipodi.sourceforge.net/DTD/sodipodi-0.dtd"
   xmlns="http://www.w3.org/2000/svg"
   xmlns:svg="http://www.w3.org/2000/svg"><defs
     id="defs13"><linearGradient
       x1="0"
       y1="0"
       x2="0.50599998"
       y2="0"
       gradientUnits="userSpaceOnUse"
       gradientTransform="matrix(0,-125.6266,-118.7547,0,190.8105,751.4704)"
       spreadMethod="pad"
       id="linearGradient273"><stop
         style="stop-opacity:1;stop-color:#ffffff"
         offset="0"
         id="stop269" /><stop
         style="stop-opacity:1;stop-color:#949698"
         offset="1"
         id="stop271" /></linearGradient><clipPath
       clipPathUnits="userSpaceOnUse"
       id="clipPath283"><path
         d="M 66.42,743.82 H 274.14 V 528 H 66.42 Z"
         id="path281" /></clipPath><clipPath
       clipPathUnits="userSpaceOnUse"
       id="clipPath307"><path
         d="m 76.886,529.074 h 100.64 c 6.978,19.864 19.323,47.781 -9.125,46.17 -7.354,-0.416 -24.251,-0.538 -28.099,-0.663 -3.695,-0.061 -7.815,-6.218 -11.614,-6.257 -3.952,-0.041 -9.696,6.035 -13.592,6.013 -30.519,0.941 -39.283,-0.167 -39.283,-0.167 -16.102,-8.589 -6.441,-32.212 1.073,-45.096"
         id="path305" /></clipPath><linearGradient
       x1="0"
       y1="0"
       x2="1"
       y2="0"
       gradientUnits="userSpaceOnUse"
       gradientTransform="matrix(0,51.0022,140.3586,0,58.1005,527.4631)"
       spreadMethod="pad"
       id="linearGradient321"><stop
         style="stop-opacity:1;stop-color:#ffffff"
         offset="0"
         id="stop317" /><stop
         style="stop-opacity:1;stop-color:#6d6f71"
         offset="1"
         id="stop319" /></linearGradient><clipPath
       clipPathUnits="userSpaceOnUse"
       id="clipPath331"><path
         d="M 66.42,743.82 H 274.14 V 528 H 66.42 Z"
         id="path329" /></clipPath><linearGradient
       x1="0"
       y1="0"
       x2="1"
       y2="0"
       gradientUnits="userSpaceOnUse"
       gradientTransform="matrix(0,10.4689,34.62,0,111.2046,564.574)"
       spreadMethod="pad"
       id="linearGradient349"><stop
         style="stop-opacity:1;stop-color:#ffffff"
         offset="0"
         id="stop345" /><stop
         style="stop-opacity:1;stop-color:#6d6f71"
         offset="1"
         id="stop347" /></linearGradient><linearGradient
       x1="0"
       y1="0"
       x2="1"
       y2="0"
       gradientUnits="userSpaceOnUse"
       gradientTransform="matrix(0,-11.0058,-34.4522,0,174.809,634.8363)"
       spreadMethod="pad"
       id="linearGradient369"><stop
         style="stop-opacity:1;stop-color:#ffffff"
         offset="0"
         id="stop365" /><stop
         style="stop-opacity:1;stop-color:#949698"
         offset="1"
         id="stop367" /></linearGradient></defs><sodipodi:namedview
     id="namedview11"
     pagecolor="#ffffff"
     bordercolor="#666666"
     borderopacity="1.0"
     inkscape:pageshadow="2"
     inkscape:pageopacity="0.0"
     inkscape:pagecheckerboard="0"
     showgrid="false"
     fit-margin-top="0"
     fit-margin-left="0"
     fit-margin-right="0"
     fit-margin-bottom="0"
     inkscape:zoom="1.9659091"
     inkscape:cx="105.04046"
     inkscape:cy="121.31792"
     inkscape:window-width="1247"
     inkscape:window-height="792"
     inkscape:window-x="0"
     inkscape:window-y="0"
     inkscape:window-maximized="0"
     inkscape:current-layer="g15" /><g
     id="g15"
     inkscape:groupmode="layer"
     inkscape:label="gertler2001"
     transform="matrix(1.3333333,0,0,-1.3333333,-88.889939,990.68598)"><g
       id="g259"
       style="fill:#7614c3;fill-opacity:0.24885845;stroke:#000000;stroke-opacity:1"><g
         id="g261"
         style="fill:#7614c3;fill-opacity:0.24885845;stroke:#000000;stroke-opacity:1"><g
           id="g267"
           style="fill:#7614c3;fill-opacity:0.24885845;stroke:#000000;stroke-opacity:1"><path
             d="m 97.82,742.612 h 56.76 c 0,-12.079 -3.787,-51.001 12.882,-74.087 10.467,-14.496 21.738,-26.978 5.636,-43.889 l -14.895,8.455 -14.089,-8.455 c -8.454,-1.611 -9.662,6.442 -6.844,9.261 12.48,10.871 11.301,21.329 3.221,29.796 -8.454,8.858 -26.167,5.234 -30.192,1.208 -4.026,-4.027 -14.492,-16.911 5.233,-30.602 2.818,-2.818 4.428,-7.65 0,-9.663 H 83.327 c -9.661,14.093 -5.549,29.005 0.403,43.889 7.246,18.119 15.7,18.119 14.09,74.087"
             style="fill:#7614c3;stroke:#000000;fill-opacity:0.24885845;stroke-opacity:1"
             id="path275" /></g></g></g><g
       id="g277"><g
         id="g279"
         clip-path="url(#clipPath283)"><path
           d="m 97.82,742.612 h 56.76 c 0,-12.079 -3.787,-51.001 12.882,-74.087 10.467,-14.496 21.738,-26.978 5.636,-43.889 l -14.895,8.455 -14.089,-8.455 c -8.454,-1.611 -9.662,6.442 -6.844,9.261 12.48,10.871 11.301,21.329 3.221,29.796 -8.454,8.858 -26.167,5.234 -30.192,1.208 -4.026,-4.027 -14.492,-16.911 5.233,-30.602 2.818,-2.818 4.428,-7.65 0,-9.663 H 83.327 c -9.661,14.093 -5.549,29.005 0.403,43.889 7.246,18.119 15.7,18.119 14.09,74.087 z"
           style="fill:none;stroke:#000000;stroke-width:0.805;stroke-linecap:round;stroke-linejoin:round;stroke-miterlimit:4;stroke-dasharray:none;stroke-opacity:1"
           id="path285" /></g></g><path
       d="m 121.168,639.802 h 12.479 l -6.374,-5.167 z"
       style="fill:#fcd84d;fill-opacity:1;fill-rule:nonzero;stroke:#000000;stroke-width:0.805;stroke-linecap:butt;stroke-linejoin:miter;stroke-miterlimit:4;stroke-dasharray:none;stroke-opacity:1"
       id="path287" /><path
       d="m 120.094,629.065 h 12.48 l -6.374,-5.167 z"
       style="fill:#fcd84d;fill-opacity:1;fill-rule:nonzero;stroke:#000000;stroke-width:0.805;stroke-linecap:butt;stroke-linejoin:miter;stroke-miterlimit:4;stroke-dasharray:none;stroke-opacity:1"
       id="path289" /><path
       d="m 125.462,684.601 c 12.996,0 23.531,9.688 23.531,21.638 0,11.951 -10.535,21.639 -23.531,21.639 -12.996,0 -23.531,-9.688 -23.531,-21.639 0,-11.95 10.535,-21.638 23.531,-21.638 z"
       style="fill:#ffffff;fill-opacity:1;fill-rule:nonzero;stroke:#000000;stroke-width:0.805;stroke-linecap:butt;stroke-linejoin:miter;stroke-miterlimit:4;stroke-dasharray:none;stroke-opacity:1"
       id="path291" /><path
       d="m 166.791,717.782 c 29.521,11.006 43.72,2.011 40.524,-16.374 -2.12,-12.202 -13.781,-21.596 -21.598,-27.81 -11.481,-9.127 -15.991,-22.659 -16.51,-33.393"
       style="fill:none;stroke:#000000;stroke-width:3.221;stroke-linecap:butt;stroke-linejoin:miter;stroke-miterlimit:4;stroke-dasharray:none;stroke-opacity:1"
       id="path293" /><path
       d="m 157.204,714.21 11.455,10.558 -1.149,-6.716 5.263,-4.326 -15.569,0.484"
       style="fill:#000000;fill-opacity:1;fill-rule:nonzero;stroke:none"
       id="path295" /><path
       d="M 125.462,685.839 V 661.411"
       style="fill:#000000;stroke:#000000;stroke-width:3.221;stroke-linecap:butt;stroke-linejoin:miter;stroke-miterlimit:4;stroke-dasharray:none;stroke-opacity:1"
       id="path297" /><path
       d="m 125.462,651.176 -5.891,14.423 5.891,-3.423 5.89,3.423 -5.89,-14.423"
       style="fill:#000000;fill-opacity:1;fill-rule:nonzero;stroke:none"
       id="path299" /><g
       id="g301"><g
         id="g303"
         clip-path="url(#clipPath307)"><g
           id="g309"><g
             id="g315" /></g></g></g><g
       id="g325"
       style="fill:#7510c2;fill-opacity:0.24705882;stroke:#000000;stroke-opacity:1"><g
         id="g327"
         clip-path="url(#clipPath331)"
         style="fill:#7510c2;fill-opacity:0.24705882;stroke:#000000;stroke-opacity:1"><path
           d="m 76.886,529.074 h 100.64 c 6.978,19.864 19.323,47.781 -9.125,46.17 -7.354,-0.416 -24.251,-0.538 -28.099,-0.663 -3.695,-0.061 -7.815,-6.218 -11.614,-6.257 -3.952,-0.041 -9.696,6.035 -13.592,6.013 -30.519,0.941 -39.283,-0.167 -39.283,-0.167 -16.102,-8.589 -6.441,-32.212 1.073,-45.096 z"
           style="fill:#7510c2;stroke:#000000;stroke-width:0.805;stroke-linecap:butt;stroke-linejoin:miter;stroke-miterlimit:4;stroke-dasharray:none;stroke-opacity:1;fill-opacity:0.24705882"
           id="path333" /></g></g><g
       id="g335"><g
         id="g337"><g
           id="g343"><path
             d="m 112.815,574.506 h 8.856 l 7.045,-3.423 7.447,3.624 h 8.051 c -1.207,-3.02 -1.207,-8.455 -0.201,-11.073 -6.069,3.023 -26.471,2.817 -30.997,0.202 0.805,3.221 1.006,7.247 -0.201,10.67"
             style="fill:url(#linearGradient349);stroke:none"
             id="path351" /></g></g></g><path
       d="m 112.815,574.506 h 8.856 l 7.045,-3.423 7.447,3.624 h 8.051 c -1.207,-3.02 -1.207,-8.455 -0.201,-11.073 -6.069,3.023 -26.471,2.817 -30.997,0.202 0.805,3.221 1.006,7.247 -0.201,10.67 z"
       style="fill:#fcd84d;stroke:#000000;stroke-width:0.805;stroke-linecap:round;stroke-linejoin:round;stroke-miterlimit:4;stroke-dasharray:none;stroke-opacity:1;fill-opacity:1"
       id="path353" /><g
       id="g355"><g
         id="g357"><g
           id="g363"><path
             d="m 173.199,624.619 -8.856,-0.453 -6.877,4.43 -6.878,-4.43 -8.621,0.269 c 1.208,3.02 1.208,8.992 0.201,11.609 6.338,-3.022 24.056,-3.353 30.997,-0.201 -0.805,-3.221 -1.174,-7.801 0.034,-11.224"
             style="fill:url(#linearGradient369);stroke:none"
             id="path371" /></g></g></g><path
       d="m 173.199,624.619 -8.856,-0.453 -6.877,4.43 -6.878,-4.43 -8.621,0.269 c 1.208,3.02 1.208,8.992 0.201,11.609 6.338,-3.022 24.056,-3.353 30.997,-0.201 -0.805,-3.221 -1.174,-7.801 0.034,-11.224 z"
       style="fill:#fc7a95;stroke:#000000;stroke-width:0.805;stroke-linecap:round;stroke-linejoin:round;stroke-miterlimit:4;stroke-dasharray:none;stroke-opacity:1;fill-opacity:0.99543381"
       id="path373" /><path
       d="m 113.922,616.784 4.629,4.832"
       style="fill:none;stroke:#000000;stroke-width:0.805;stroke-linecap:butt;stroke-linejoin:miter;stroke-miterlimit:4;stroke-dasharray:none;stroke-opacity:1"
       id="path419" /><path
       d="m 119.271,623.56 c -1.211,-0.683 -2.077,-1.051 -3.125,-1.526 l 2.932,-2.81 c 0.133,0.401 0.76,1.949 1.391,3.188 0.675,1.327 1.357,2.463 1.86,3.141 -0.655,-0.532 -1.761,-1.262 -3.058,-1.993"
       style="fill:#000000;fill-opacity:1;fill-rule:nonzero;stroke:none"
       id="path421" /><g
       id="g57835"
       transform="rotate(85.673881,145.6128,628.63519)"><path
         d="m 120.92482,605.49209 4.629,4.832"
         style="fill:none;stroke:#000000;stroke-width:0.805;stroke-linecap:butt;stroke-linejoin:miter;stroke-miterlimit:4;stroke-dasharray:none;stroke-opacity:1"
         id="path419-3" /><path
         d="m 126.27382,612.26809 c -1.211,-0.683 -2.077,-1.051 -3.125,-1.526 l 2.932,-2.81 c 0.133,0.401 0.76,1.949 1.391,3.188 0.675,1.327 1.357,2.463 1.86,3.141 -0.655,-0.532 -1.761,-1.262 -3.058,-1.993"
         style="fill:#000000;fill-opacity:1;fill-rule:nonzero;stroke:none"
         id="path421-3" /></g><path
       d="m 148.542,581.955 -4.83,-4.631"
       style="fill:none;stroke:#000000;stroke-width:0.805;stroke-linecap:butt;stroke-linejoin:miter;stroke-miterlimit:4;stroke-dasharray:none;stroke-opacity:1"
       id="path423" /><path
       d="m 141.768,576.604 c 0.683,1.211 1.051,2.078 1.525,3.126 l 2.81,-2.933 c -0.401,-0.133 -1.948,-0.76 -3.187,-1.391 -1.326,-0.676 -2.463,-1.357 -3.14,-1.861 0.532,0.656 1.261,1.762 1.992,3.059"
       style="fill:#000000;fill-opacity:1;fill-rule:nonzero;stroke:none"
       id="path425" /><path
       d="m 185.543,636.353 -10.45,-4.93"
       style="fill:none;stroke:#000000;stroke-width:0.805;stroke-linecap:butt;stroke-linejoin:miter;stroke-miterlimit:4;stroke-dasharray:none;stroke-opacity:1"
       id="path427" /><path
       d="m 173.022,631.337 c 1.023,0.942 1.64,1.652 2.414,2.504 l 1.771,-3.656 c -0.423,-0.003 -2.089,-0.123 -3.462,-0.342 -1.469,-0.234 -2.76,-0.532 -3.56,-0.803 0.708,0.46 1.742,1.288 2.837,2.297"
       style="fill:#000000;fill-opacity:1;fill-rule:nonzero;stroke:none"
       id="path429" /><path
       d="m 130.427,710.669 h 12.479 l -6.374,-5.168 z"
       style="fill:#fcd84d;fill-opacity:1;fill-rule:nonzero;stroke:#000000;stroke-width:0.805;stroke-linecap:butt;stroke-linejoin:miter;stroke-miterlimit:4;stroke-dasharray:none;stroke-opacity:1"
       id="path431" /><path
       d="m 121.973,694.831 h 12.479 l -6.374,-5.167 z"
       style="fill:#fcd84d;fill-opacity:1;fill-rule:nonzero;stroke:#000000;stroke-width:0.805;stroke-linecap:butt;stroke-linejoin:miter;stroke-miterlimit:4;stroke-dasharray:none;stroke-opacity:1"
       id="path433" /><path
       d="m 111.506,704.763 h 12.48 l -6.374,-5.167 z"
       style="fill:#fcd84d;fill-opacity:1;fill-rule:nonzero;stroke:#000000;stroke-width:0.805;stroke-linecap:butt;stroke-linejoin:miter;stroke-miterlimit:4;stroke-dasharray:none;stroke-opacity:1"
       id="path435" /><path
       d="m 163.57356,614.55347 h -12.48 l 6.374,5.167 z"
       style="fill:#fc7a95;fill-opacity:1;fill-rule:nonzero;stroke:#000000;stroke-width:0.805;stroke-linecap:butt;stroke-linejoin:miter;stroke-miterlimit:4;stroke-dasharray:none;stroke-opacity:1"
       id="path289-3" /><text
       xml:space="preserve"
       style="font-size:10px;line-height:1.25;font-family:Verdana;-inkscape-font-specification:Verdana;stroke-width:0.75"
       x="146.78305"
       y="-594.60992"
       id="text79089"
       transform="scale(1,-1)"><tspan
         sodipodi:role="line"
         id="tspan79087"
         style="font-style:normal;font-variant:normal;font-weight:normal;font-stretch:normal;font-size:10px;font-family:Calibri;-inkscape-font-specification:Calibri;stroke-width:0.75"
         x="146.78305"
         y="-594.60992">Dexmedetomidina</tspan></text><text
       xml:space="preserve"
       style="font-size:9px;line-height:1.25;font-family:Verdana;-inkscape-font-specification:Verdana;stroke-width:0.75"
       x="161.66168"
       y="-703.3382"
       id="text100463"
       transform="scale(1,-1)"><tspan
         sodipodi:role="line"
         id="tspan100461"
         style="font-style:normal;font-variant:normal;font-weight:normal;font-stretch:normal;font-size:9px;font-family:Calibri;-inkscape-font-specification:Calibri;stroke-width:0.75"
         x="161.66168"
         y="-703.3382">FEEDBACK </tspan><tspan
         sodipodi:role="line"
         style="font-style:normal;font-variant:normal;font-weight:normal;font-stretch:normal;font-size:9px;font-family:Calibri;-inkscape-font-specification:Calibri;stroke-width:0.75"
         x="161.66168"
         y="-691.7522"
         id="tspan101293">NEGATIVO</tspan></text><text
       xml:space="preserve"
       style="font-size:10px;line-height:1.25;font-family:Verdana;-inkscape-font-specification:Verdana;stroke-width:0.75"
       x="188.21352"
       y="-634.06403"
       id="text108611"
       transform="scale(1,-1)"><tspan
         sodipodi:role="line"
         id="tspan108609"
         style="font-style:normal;font-variant:normal;font-weight:normal;font-stretch:normal;font-size:10px;font-family:Calibri;-inkscape-font-specification:Calibri;stroke-width:0.75"
         x="188.21352"
         y="-634.06403">Recettore α<tspan
   style="font-size:65%;baseline-shift:sub"
   id="tspan146229">2</tspan></tspan></text><text
       xml:space="preserve"
       style="font-size:14px;line-height:1.25;font-family:Verdana;-inkscape-font-specification:Verdana;stroke-width:0.75"
       x="150.97958"
       y="-579.34973"
       id="text122659"
       transform="scale(1,-1)"><tspan
         sodipodi:role="line"
         id="tspan122657"
         style="stroke-width:0.75"
         x="150.97958"
         y="-579.34973"><tspan
   style="font-style:normal;font-variant:normal;font-weight:normal;font-stretch:normal;font-size:10px;font-family:Calibri;-inkscape-font-specification:Calibri"
   id="tspan126075">Recettore α<tspan
   style="font-size:65%;baseline-shift:sub"
   id="tspan148595">1</tspan></tspan> </tspan></text><text
       xml:space="preserve"
       style="font-size:10px;line-height:1.25;font-family:Verdana;-inkscape-font-specification:Verdana;stroke-width:0.75"
       x="71.245491"
       y="-607.96246"
       id="text128825"
       transform="scale(1,-1)"><tspan
         sodipodi:role="line"
         id="tspan128823"
         style="font-style:normal;font-variant:normal;font-weight:normal;font-stretch:normal;font-size:10px;font-family:Calibri;-inkscape-font-specification:Calibri;stroke-width:0.75"
         x="71.245491"
         y="-607.96246">Noradrenalina</tspan></text><text
       xml:space="preserve"
       style="font-size:7px;line-height:0.95;font-family:Verdana;-inkscape-font-specification:Verdana;stroke-width:0.75"
       x="126.99916"
       y="-736.52899"
       id="text135321"
       transform="scale(1,-1)"><tspan
         sodipodi:role="line"
         id="tspan135319"
         style="font-style:normal;font-variant:normal;font-weight:normal;font-stretch:normal;font-size:7px;font-family:Calibri;-inkscape-font-specification:Calibri;text-align:center;text-anchor:middle;stroke-width:0.75"
         x="126.99916"
         y="-736.52899">Vescicola </tspan><tspan
         sodipodi:role="line"
         style="font-style:normal;font-variant:normal;font-weight:normal;font-stretch:normal;font-size:7px;font-family:Calibri;-inkscape-font-specification:Calibri;text-align:center;text-anchor:middle;stroke-width:0.75"
         x="126.99916"
         y="-729.61768"
         id="tspan136121">sinaptica</tspan></text></g></svg>
