<?xml version="1.0" encoding="utf-8"?>
<!-- Generator: Adobe Illustrator 26.1.0, SVG Export Plug-In . SVG Version: 6.00 Build 0)  -->
<svg version="1.1" id="Livello_1" xmlns="http://www.w3.org/2000/svg" xmlns:xlink="http://www.w3.org/1999/xlink" x="0px" y="0px"
	 viewBox="0 0 1170.6 467.9" style="enable-background:new 0 0 1170.6 467.9;" xml:space="preserve">
<style type="text/css">
	.st0{fill:#FFFFFF;}
	.st1{opacity:0.149;fill:none;stroke:#262626;stroke-width:0.5;stroke-linejoin:round;stroke-miterlimit:10;}
	.st2{fill:none;stroke:#262626;stroke-width:0.5;stroke-linejoin:round;stroke-miterlimit:10;}
	.st3{clip-path:url(#SVGID_00000087378326576430792430000018147283477745195660_);}
	.st4{fill:none;stroke:#0072BD;stroke-width:0.5;stroke-miterlimit:10;}
	.st5{fill:none;}
	.st6{fill:none;stroke:#D95319;stroke-width:0.5;stroke-miterlimit:10;}
	.st7{fill:none;stroke:#EDB120;stroke-width:0.5;stroke-miterlimit:10;}
	.st8{fill:none;stroke:#7E2F8E;stroke-width:0.5;stroke-miterlimit:10;}
	.st9{fill:none;stroke:#77AC30;stroke-width:0.5;stroke-miterlimit:10;}
	.st10{fill:none;stroke:#4DBEEE;stroke-width:0.5;stroke-miterlimit:10;}
	.st11{fill:none;stroke:#A2142F;stroke-width:0.5;stroke-miterlimit:10;}
	.st12{fill:none;stroke:#262626;stroke-width:0.5;stroke-linecap:square;stroke-linejoin:round;stroke-miterlimit:10;}
	.st13{fill:#262626;}
	.st14{font-family:'MyriadPro-Regular';}
	.st15{font-size:18px;}
</style>
<rect x="50.4" y="-40" class="st0" width="1211.2" height="538.3"/>
<rect x="377.5" y="0.3" class="st0" width="769.1" height="438.7"/>
<line class="st1" x1="377.5" y1="439.1" x2="377.5" y2="0.3"/>
<line class="st1" x1="487.3" y1="439.1" x2="487.3" y2="0.3"/>
<line class="st1" x1="597.2" y1="439.1" x2="597.2" y2="0.3"/>
<line class="st1" x1="707.1" y1="439.1" x2="707.1" y2="0.3"/>
<line class="st1" x1="817" y1="439.1" x2="817" y2="0.3"/>
<line class="st1" x1="926.8" y1="439.1" x2="926.8" y2="0.3"/>
<line class="st1" x1="1036.7" y1="439.1" x2="1036.7" y2="0.3"/>
<line class="st1" x1="1146.6" y1="439.1" x2="1146.6" y2="0.3"/>
<line class="st1" x1="1146.6" y1="414.7" x2="377.5" y2="414.7"/>
<line class="st1" x1="1146.6" y1="365.9" x2="377.5" y2="365.9"/>
<line class="st1" x1="1146.6" y1="317.2" x2="377.5" y2="317.2"/>
<line class="st1" x1="1146.6" y1="268.4" x2="377.5" y2="268.4"/>
<line class="st1" x1="1146.6" y1="219.7" x2="377.5" y2="219.7"/>
<line class="st1" x1="1146.6" y1="171" x2="377.5" y2="171"/>
<line class="st1" x1="1146.6" y1="122.2" x2="377.5" y2="122.2"/>
<line class="st1" x1="1146.6" y1="73.5" x2="377.5" y2="73.5"/>
<line class="st1" x1="1146.6" y1="24.7" x2="377.5" y2="24.7"/>
<line class="st2" x1="377.5" y1="439.1" x2="377.5" y2="0.3"/>
<g>
	<defs>
		<path id="SVGID_1_" d="M377.5,46.6h461.5V2.8H377.5V46.6z M377.5,95.4h219.7V51.5H377.5V95.4z M377.5,144.1h65.9v-43.9h-65.9
			V144.1z M377.5,192.9h219.7V149H377.5V192.9z M377.5,241.6h241.7v-43.9H377.5V241.6z M377.5,290.4h703.2v-43.9H377.5V290.4z
			 M377.5,339.1h615.3v-43.9H377.5V339.1z M377.5,387.9h505.4V344H377.5V387.9z M377.5,436.6h285.7v-43.9H377.5V436.6z"/>
	</defs>
	<clipPath id="SVGID_00000149353943914112215060000014204432092596440751_">
		<use xlink:href="#SVGID_1_"  style="overflow:visible;"/>
	</clipPath>
	<g style="clip-path:url(#SVGID_00000149353943914112215060000014204432092596440751_);">
		<defs>
			<rect id="SVGID_00000144309435727323889670000010413491417753984685_" x="377.5" y="2.8" width="703.2" height="433.9"/>
		</defs>
		<clipPath id="SVGID_00000172403248723164112490000005120160991581728690_">
			<use xlink:href="#SVGID_00000144309435727323889670000010413491417753984685_"  style="overflow:visible;"/>
		</clipPath>
		<g transform="matrix(1 0 0 1 0 0)" style="clip-path:url(#SVGID_00000172403248723164112490000005120160991581728690_);">
			
				<image style="overflow:visible;" width="5626" height="3472" xlink:href="A85C9545.png"  transform="matrix(0.125 0 0 0.125 377.4692 2.774)">
			</image>
		</g>
	</g>
</g>
<line class="st4" x1="377.5" y1="436.6" x2="663.1" y2="436.6"/>
<line class="st4" x1="663.1" y1="436.6" x2="663.1" y2="392.8"/>
<line class="st4" x1="663.1" y1="392.8" x2="377.5" y2="392.8"/>
<line class="st5" x1="663.1" y1="392.8" x2="377.5" y2="436.6"/>
<line class="st6" x1="377.5" y1="387.9" x2="882.9" y2="387.9"/>
<line class="st6" x1="882.9" y1="387.9" x2="882.9" y2="344"/>
<line class="st6" x1="882.9" y1="344" x2="377.5" y2="344"/>
<line class="st5" x1="882.9" y1="344" x2="377.5" y2="387.9"/>
<line class="st7" x1="377.5" y1="339.1" x2="992.8" y2="339.1"/>
<line class="st7" x1="992.8" y1="339.1" x2="992.8" y2="295.3"/>
<line class="st7" x1="992.8" y1="295.3" x2="377.5" y2="295.3"/>
<line class="st5" x1="992.8" y1="295.3" x2="377.5" y2="339.1"/>
<line class="st8" x1="377.5" y1="290.4" x2="1080.7" y2="290.4"/>
<line class="st8" x1="1080.7" y1="290.4" x2="1080.7" y2="246.5"/>
<line class="st8" x1="1080.7" y1="246.5" x2="377.5" y2="246.5"/>
<line class="st5" x1="1080.7" y1="246.5" x2="377.5" y2="290.4"/>
<line class="st9" x1="377.5" y1="241.6" x2="619.2" y2="241.6"/>
<line class="st9" x1="619.2" y1="241.6" x2="619.2" y2="197.8"/>
<line class="st9" x1="619.2" y1="197.8" x2="377.5" y2="197.8"/>
<line class="st5" x1="619.2" y1="197.8" x2="377.5" y2="241.6"/>
<line class="st10" x1="377.5" y1="192.9" x2="597.2" y2="192.9"/>
<line class="st10" x1="597.2" y1="192.9" x2="597.2" y2="149"/>
<line class="st10" x1="597.2" y1="149" x2="377.5" y2="149"/>
<line class="st5" x1="597.2" y1="149" x2="377.5" y2="192.9"/>
<line class="st11" x1="377.5" y1="144.1" x2="443.4" y2="144.1"/>
<line class="st11" x1="443.4" y1="144.1" x2="443.4" y2="100.3"/>
<line class="st11" x1="443.4" y1="100.3" x2="377.5" y2="100.3"/>
<line class="st5" x1="443.4" y1="100.3" x2="377.5" y2="144.1"/>
<line class="st4" x1="377.5" y1="95.4" x2="597.2" y2="95.4"/>
<line class="st4" x1="597.2" y1="95.4" x2="597.2" y2="51.5"/>
<line class="st4" x1="597.2" y1="51.5" x2="377.5" y2="51.5"/>
<line class="st5" x1="597.2" y1="51.5" x2="377.5" y2="95.4"/>
<line class="st6" x1="377.5" y1="46.6" x2="838.9" y2="46.6"/>
<line class="st6" x1="838.9" y1="46.6" x2="838.9" y2="2.8"/>
<line class="st6" x1="838.9" y1="2.8" x2="377.5" y2="2.8"/>
<line class="st5" x1="838.9" y1="2.8" x2="377.5" y2="46.6"/>
<line class="st12" x1="377.5" y1="439.1" x2="1146.6" y2="439.1"/>
<line class="st12" x1="377.5" y1="439.1" x2="377.5" y2="431.4"/>
<line class="st12" x1="487.3" y1="439.1" x2="487.3" y2="431.4"/>
<line class="st12" x1="597.2" y1="439.1" x2="597.2" y2="431.4"/>
<line class="st12" x1="707.1" y1="439.1" x2="707.1" y2="431.4"/>
<line class="st12" x1="817" y1="439.1" x2="817" y2="431.4"/>
<line class="st12" x1="926.8" y1="439.1" x2="926.8" y2="431.4"/>
<line class="st12" x1="1036.7" y1="439.1" x2="1036.7" y2="431.4"/>
<line class="st12" x1="1146.6" y1="439.1" x2="1146.6" y2="431.4"/>
<text transform="matrix(1 0 0 1 373.0955 456.5508)" class="st13 st14 st15">0</text>
<text transform="matrix(1 0 0 1 482.97 456.5508)" class="st13 st14 st15">5</text>
<text transform="matrix(1 0 0 1 588.4705 456.5508)" class="st13 st14 st15">10</text>
<text transform="matrix(1 0 0 1 698.3455 456.5508)" class="st13 st14 st15">15</text>
<text transform="matrix(1 0 0 1 808.2195 456.5508)" class="st13 st14 st15">20</text>
<text transform="matrix(1 0 0 1 918.0935 456.5508)" class="st13 st14 st15">25</text>
<text transform="matrix(1 0 0 1 1027.9685 456.5508)" class="st13 st14 st15">30</text>
<text transform="matrix(1 0 0 1 1137.8435 456.5508)" class="st13 st14 st15">35</text>
<line class="st12" x1="377.5" y1="439.1" x2="377.5" y2="0.3"/>
<line class="st12" x1="377.5" y1="414.7" x2="385.2" y2="414.7"/>
<line class="st12" x1="377.5" y1="365.9" x2="385.2" y2="365.9"/>
<line class="st12" x1="377.5" y1="317.2" x2="385.2" y2="317.2"/>
<line class="st12" x1="377.5" y1="268.4" x2="385.2" y2="268.4"/>
<line class="st12" x1="377.5" y1="219.7" x2="385.2" y2="219.7"/>
<line class="st12" x1="377.5" y1="171" x2="385.2" y2="171"/>
<line class="st12" x1="377.5" y1="122.2" x2="385.2" y2="122.2"/>
<line class="st12" x1="377.5" y1="73.5" x2="385.2" y2="73.5"/>
<line class="st12" x1="377.5" y1="24.7" x2="385.2" y2="24.7"/>
<text transform="matrix(1 0 0 1 8.5807 419.4023)" class="st13 st14 st15">TIPO DI FARMACO E VIA DI SOMMINISTRAZIONE</text>
<text transform="matrix(1 0 0 1 50.7365 370.6543)" class="st13 st14 st15">EFFETTI AVVERSI DURANTE LA SEDAZIONE</text>
<text transform="matrix(1 0 0 1 78.3479 321.9072)" class="st13 st14 st15">EFFETTI AVVERSI DOPO LA SEDAZIONE</text>
<text transform="matrix(1 0 0 1 184.4567 273.1592)" class="st13 st14 st15">QUALITÀ DEL RISVEGLIO</text>
<text transform="matrix(1 0 0 1 219.1784 224.4116)" class="st13 st14 st15">TEMPI DI RISVEGLIO</text>
<text transform="matrix(1 0 0 1 130.0436 175.6641)" class="st13 st14 st15">NECESSITÀ DI FARMACI RESCUE</text>
<text transform="matrix(1 0 0 1 160.9128 126.916)" class="st13 st14 st15">IMPEGNO INFERMIERISTICO</text>
<text transform="matrix(1 0 0 1 137.5309 78.1685)" class="st13 st14 st15">SODDISFAZIONE DEI GENITORI</text>
<text transform="matrix(1 0 0 1 131.7536 29.4209)" class="st13 st14 st15">SODDISFAZIONE DEL BAMBINO</text>
</svg>
